<?xml version="1.0" encoding="UTF-8"?>
<!-- Generator: visioncortex VTracer 0.6.2 -->
<svg version="1.1" xmlns="http://www.w3.org/2000/svg" width="1280" height="1280">
<path d="M0 0 C2.22719662 -0.00963841 4.45344147 -0.04070176 6.68041992 -0.07226562 C29.99240325 -0.24636594 53.62671749 7.03385426 71.6940918 22.24023438 C71.6940918 22.90023437 71.6940918 23.56023437 71.6940918 24.24023438 C72.24709961 24.46195313 72.80010742 24.68367188 73.36987305 24.91210938 C90.73270622 34.83372833 101.5201978 61.67171496 107.6940918 79.24023438 C108.03053711 80.17222656 108.36698242 81.10421875 108.71362305 82.06445312 C131.16036076 149.04694934 121.26812137 233.23641577 105.4440918 300.67773438 C104.21062619 306.89732788 104.55363344 312.00004832 107.4440918 317.67773438 C110.41244886 321.05836325 112.93712268 322.09055087 117.40898132 322.4715271 C124.33065626 322.37012749 131.14354078 321.94793815 138.02612305 321.21679688 C140.20386656 320.99822104 142.38168574 320.78039822 144.55957031 320.56323242 C145.69097443 320.4489389 146.82237854 320.33464539 147.98806763 320.21688843 C234.22238528 311.59831831 343.96780374 302.36023665 432.1315918 352.17773438 C433.67233282 353.50920667 435.19331439 354.86387375 436.6940918 356.24023438 C437.53327148 356.97628906 438.37245117 357.71234375 439.23706055 358.47070312 C450.52584437 368.93972655 457.7667187 382.72781162 458.6940918 398.24023438 C458.77336914 399.49320313 458.77336914 399.49320313 458.85424805 400.77148438 C459.70619141 427.7373438 447.37589394 453.5015647 432.67895508 475.47583008 C430.82430502 478.79847658 430.6940918 481.42604558 430.6940918 485.24023438 C432.54204496 490.24023424 434.93324781 494.31871523 437.9440918 498.74023438 C449.62575289 516.42065097 456.2693634 536.06056279 453.2331543 557.49414062 C449.18025208 575.7798818 436.58880543 588.32286183 421.39428711 598.203125 C418.8633749 599.74696691 416.22359939 601.04859861 413.5690918 602.36523438 C409.38305169 604.56938824 406.87458437 606.49180992 405.23071289 611.01611328 C403.52357139 618.09166334 406.53051276 626.35777023 408.1940918 633.24023438 C413.78875402 656.38615121 414.89090747 683.26202503 403.31518555 704.80664062 C401.87904962 707.05671735 400.34727338 709.14515223 398.6940918 711.24023438 C397.86844727 712.34431641 397.86844727 712.34431641 397.02612305 713.47070312 C390.75633776 721.23775057 382.31700212 726.49898202 373.40893555 730.84179688 C369.21192443 733.00371052 367.17119231 735.80893285 365.6940918 740.24023438 C365.56058507 742.59291951 365.46280112 744.94766401 365.3815918 747.30273438 C363.94362153 776.16054384 358.04365988 806.12607887 339.6940918 829.24023438 C339.05213867 830.06910156 338.41018555 830.89796875 337.7487793 831.75195312 C326.9748495 844.73235194 311.59640315 852.55799358 294.9440918 854.61523438 C293.94587402 854.74273071 293.94587402 854.74273071 292.92749023 854.87280273 C287.88997428 855.36233269 282.96387776 855.10353422 277.92645073 854.75406837 C269.21885919 854.20039785 260.55759475 854.12763683 251.83572388 854.18295288 C250.21100029 854.18914647 248.58627471 854.19483173 246.96154773 854.20006049 C243.46357339 854.2122479 239.96563347 854.22761529 236.46768379 854.24552727 C230.77248455 854.27453688 225.07727137 854.29593301 219.3820343 854.31596375 C217.38105033 854.32305295 215.38006638 854.33014716 213.37908244 854.33724618 C212.37129925 854.34081054 211.36351605 854.34437491 210.32519397 854.34804729 C207.20213686 854.35934712 204.07908306 854.3713415 200.95602918 854.383497 C185.72931448 854.44198021 170.50265999 854.47610489 155.27584839 854.4960022 C154.17083544 854.49747652 153.0658225 854.49895085 151.92732431 854.50046985 C141.67596606 854.51397385 131.4246062 854.52586287 121.17324471 854.5366199 C114.15968475 854.54405431 107.14612628 854.55236267 100.13256836 854.56152344 C98.96797143 854.56303298 97.8033745 854.56454252 96.60348676 854.56609781 C77.7500059 854.59204622 58.8970296 854.66803223 40.04377748 854.7615854 C20.63280334 854.85667122 1.22230658 854.89414343 -18.18889725 854.87992442 C-30.13130796 854.87302717 -42.07183866 854.91042471 -54.0138721 855.00653245 C-62.21295753 855.06826955 -70.41093358 855.07386373 -78.6101629 855.03707205 C-83.32564663 855.01753709 -88.0378017 855.02109095 -92.75286293 855.09223366 C-115.54692751 855.41668411 -131.2996068 853.28023079 -150.35345864 840.18335843 C-155.4611153 836.82180717 -160.89177309 834.06951307 -166.3059082 831.24023438 C-168.20639633 830.21146151 -170.10516666 829.17950041 -172.0012207 828.14257812 C-172.90227539 827.65080078 -173.80333008 827.15902344 -174.73168945 826.65234375 C-175.62243164 826.16572266 -176.51317383 825.67910156 -177.4309082 825.17773438 C-178.77862305 824.44200195 -178.77862305 824.44200195 -180.15356445 823.69140625 C-181.95293594 822.70910948 -183.75145531 821.72525002 -185.54907227 820.73974609 C-187.4925412 819.68264494 -189.44313229 818.63858646 -191.39868164 817.60400391 C-192.8957666 816.80712158 -192.8957666 816.80712158 -194.4230957 815.99414062 C-195.33430176 815.51404541 -196.24550781 815.0339502 -197.18432617 814.53930664 C-199.3059082 813.24023438 -199.3059082 813.24023438 -200.3059082 811.24023438 C-200.41016296 809.0999681 -200.44789843 806.95638086 -200.45688915 804.81359577 C-200.46103896 804.14310091 -200.46518877 803.47260604 -200.46946433 802.78179315 C-200.48223564 800.51291674 -200.48782736 798.24407855 -200.49345398 795.97517395 C-200.50104407 794.34088904 -200.50904509 792.70660599 -200.51742393 791.07232493 C-200.53915973 786.56394379 -200.55444093 782.05556013 -200.5685643 777.54714954 C-200.58144865 773.68449896 -200.59800635 769.82186753 -200.61454155 765.95923112 C-200.77060325 729.35690391 -200.8455505 692.75413432 -200.90616131 656.1515398 C-200.9141904 651.3867522 -200.92235866 646.62196486 -200.93066406 641.85717773 C-200.93272167 640.67287085 -200.93477927 639.48856396 -200.93689922 638.26836898 C-200.97132981 619.07717112 -201.04399021 599.88630689 -201.13157167 580.69528595 C-201.22069087 561.00473087 -201.27207945 541.31434898 -201.28746349 521.62359637 C-201.29713025 510.5627953 -201.32397283 499.50259529 -201.39377403 488.44199562 C-201.45318823 479.02326796 -201.4790013 469.60522114 -201.46043517 460.18631051 C-201.45203022 455.37890329 -201.45996495 450.57296559 -201.5114212 445.76579475 C-201.55816058 441.36501386 -201.55880843 436.96672728 -201.52268443 432.5658687 C-201.51775988 430.9735786 -201.52978774 429.38112765 -201.56041881 427.78912459 C-201.7757043 415.89131365 -201.7757043 415.89131365 -198.12351 411.78866136 C-195.58632801 409.98364576 -193.10949761 408.58333028 -190.3059082 407.24023438 C-189.11341957 406.5012323 -187.9295804 405.74789617 -186.7590332 404.97460938 C-185.17348633 403.99234375 -185.17348633 403.99234375 -183.5559082 402.99023438 C-172.79940188 396.18216917 -163.04440876 388.05535523 -153.47949219 379.68017578 C-151.07815163 377.60282258 -149.35487973 376.25655822 -146.3059082 375.24023438 C-145.6193847 373.91701569 -144.95481859 372.58229903 -144.3059082 371.24023438 C-142.7121582 369.66992187 -142.7121582 369.66992187 -140.8059082 368.11523438 C-134.86062234 363.08460788 -128.64263419 357.74532336 -124.3059082 351.24023438 C-123.6459082 351.24023438 -122.9859082 351.24023438 -122.3059082 351.24023438 C-122.06098633 350.675625 -121.81606445 350.11101562 -121.5637207 349.52929688 C-120.0790132 346.82731366 -118.28624485 344.86728438 -116.1809082 342.61523438 C-103.79038641 329.04466289 -92.87851 313.91770586 -83.3059082 298.24023438 C-82.44610418 296.87119609 -81.5853435 295.50275838 -80.72387695 294.13476562 C-74.64730997 284.42298737 -69.21660299 274.58599469 -64.3059082 264.24023438 C-63.60811047 262.78835429 -62.91019121 261.33653261 -62.2121582 259.88476562 C-58.33028725 251.76779868 -54.59634329 243.61755379 -51.3059082 235.24023438 C-50.98509277 234.43295898 -50.66427734 233.62568359 -50.33374023 232.79394531 C-44.29611939 217.51672943 -39.45051827 202.12979623 -35.3059082 186.24023438 C-34.91270965 184.7649658 -34.5194838 183.2897045 -34.1262207 181.81445312 C-30.25941615 167.0712401 -27.49530337 152.11044166 -25.1809082 137.05273438 C-25.02235352 136.05266357 -24.86379883 135.05259277 -24.70043945 134.0222168 C-21.31867756 111.19710019 -21.00782165 88.36949634 -21.11029053 65.35388184 C-21.12119065 62.26398459 -21.1207561 59.17413119 -21.12015247 56.08421803 C-21.12042676 53.0546702 -21.12594632 50.02514979 -21.13315392 46.99561119 C-21.1362812 45.57535698 -21.13829364 44.15509976 -21.13904762 42.7348423 C-21.14821566 34.51622612 -21.41647428 26.38015914 -22.08352661 18.18751526 C-22.35706351 14.56225986 -22.4054969 10.9999262 -22.3684082 7.36523438 C-22.35938477 6.1921875 -22.35036133 5.01914063 -22.34106445 3.81054688 C-22.32366211 2.53824219 -22.32366211 2.53824219 -22.3059082 1.24023438 C-14.85777666 0.20891488 -7.51171425 0.01956813 0 0 Z " fill="#121212" transform="translate(662.305908203125,214.759765625)"/>
<path d="M0 0 C0.89559799 -0.00297112 1.79119597 -0.00594224 2.71393329 -0.0090034 C5.71537031 -0.01767591 8.71676738 -0.01919743 11.71821594 -0.02069092 C13.87018926 -0.02532013 16.02216176 -0.03034493 18.1741333 -0.03573608 C24.02142931 -0.04885255 29.86871383 -0.05530364 35.71602225 -0.05974674 C39.3703532 -0.06267883 43.02468102 -0.06678391 46.67901039 -0.07125092 C58.11592236 -0.08492418 69.55282717 -0.09459154 80.98974675 -0.09845281 C94.18561006 -0.10293255 107.38136974 -0.12047736 120.57720155 -0.1494534 C130.78119801 -0.17108091 140.98516535 -0.18115767 151.18918449 -0.18249393 C157.28162706 -0.18354123 163.37397219 -0.18943324 169.46639061 -0.20731354 C175.19965895 -0.22381248 180.93275678 -0.22594077 186.66604042 -0.21717453 C188.76623619 -0.21640512 190.86644119 -0.2207341 192.96661377 -0.23063278 C195.84228307 -0.24338791 198.71735171 -0.23745604 201.59301758 -0.22705078 C202.41648719 -0.23510719 203.2399568 -0.24316359 204.08838004 -0.25146413 C214.47127483 -0.16409956 222.61832811 2.9607103 230.1139679 10.14044189 C237.86726273 18.60473757 240.23593725 27.71060883 240.24260235 39.05368519 C240.24435539 39.72819624 240.24610842 40.40270729 240.24791458 41.09765807 C240.25256371 43.35614677 240.25011189 45.61457078 240.24768066 47.87306213 C240.24954918 49.50937251 240.25185005 51.14568244 240.25454599 52.78199166 C240.26066532 57.27748994 240.26053023 61.77296963 240.25935161 66.26847112 C240.25914764 71.11725678 240.26466603 75.96603646 240.26940918 80.81481934 C240.27771698 90.31406671 240.28046408 99.81330787 240.28102156 109.31255857 C240.28149665 117.03354507 240.28355105 124.75452952 240.28672218 132.47551537 C240.29552904 154.36347532 240.3001415 176.25143037 240.29939171 198.13939212 C240.29933177 199.90951259 240.29933177 199.90951259 240.29927063 201.71539307 C240.29922975 202.89691333 240.29918887 204.07843359 240.29914675 205.29575749 C240.29874025 224.44638903 240.30831069 243.59700091 240.322409 262.74762676 C240.33676912 282.40894733 240.34367938 302.0702583 240.34281522 321.73158425 C240.34248313 332.77089181 240.34523554 343.81017875 240.35599327 354.84948158 C240.36509347 364.24813547 240.36727746 373.64675941 240.36048385 383.0454158 C240.35721625 387.84039937 240.35717065 392.63532545 240.3658371 397.43030357 C240.37369233 401.82162392 240.37228063 406.2128411 240.36355297 410.6041589 C240.36201583 412.19093987 240.36384218 413.7777285 240.36941304 415.36450044 C240.41518984 429.3306857 239.33229661 441.8934052 229.3014679 452.51544189 C217.32166335 463.62195228 202.11942209 462.43310234 186.80000305 462.39923096 C184.7392057 462.40194398 182.67840931 462.40550666 180.61761475 462.40985107 C175.04110841 462.41894137 169.46467638 462.41544437 163.88816881 462.4090929 C158.03882179 462.40401415 152.18948095 462.40872969 146.34013367 462.41186523 C136.51668664 462.41549999 126.69326972 462.41071925 116.86982727 462.40118408 C105.53294573 462.39030656 94.19613617 462.39382201 82.85925639 462.40483689 C73.10692469 462.41393098 63.35461459 462.41518449 53.60228002 462.40995955 C47.78597992 462.40685074 41.96971358 462.40640039 36.15341568 462.41303253 C30.68192003 462.41883604 25.21051659 462.41475432 19.73903084 462.40324402 C17.73804311 462.40061319 15.73704755 462.40133535 13.736063 462.40576935 C-15.63122382 462.46481381 -15.63122382 462.46481381 -26.8860321 453.14044189 C-29.21031193 450.63591179 -31.07790508 448.03220668 -32.8860321 445.14044189 C-33.7522821 443.99575439 -33.7522821 443.99575439 -34.6360321 442.82794189 C-38.93484543 433.58549324 -38.17068977 422.78020143 -38.13999939 412.8132782 C-38.14230705 411.17336437 -38.14548562 409.53345157 -38.14945388 407.89354092 C-38.15776841 403.41124667 -38.15369186 398.92903808 -38.14748144 394.44674361 C-38.14294427 389.60347719 -38.14994695 384.76022519 -38.15544128 379.91696167 C-38.16432323 370.4387762 -38.16241867 360.96062245 -38.156616 351.48243576 C-38.15209507 343.77826144 -38.15148848 336.07409599 -38.15366364 328.36992073 C-38.1539701 327.27247994 -38.15427657 326.17503914 -38.15459232 325.04434257 C-38.15523178 322.81476775 -38.15588021 320.58519294 -38.1565375 318.35561813 C-38.16223722 297.46114652 -38.15568839 276.56669248 -38.14493677 255.67222375 C-38.13600034 237.75056958 -38.13755476 219.82894131 -38.14677429 201.9072876 C-38.1574811 181.08486618 -38.16168924 160.26246014 -38.15554976 139.44003636 C-38.15491268 137.21907334 -38.15428394 134.99811032 -38.15366364 132.77714729 C-38.15335508 131.6844475 -38.15304653 130.59174771 -38.15272863 129.46593581 C-38.15100302 121.77205543 -38.15391389 114.07818482 -38.15862274 106.38430595 C-38.16423607 97.00665933 -38.16270554 87.62904618 -38.15206125 78.25140338 C-38.14681085 73.46841499 -38.1447371 68.68548239 -38.15135956 63.90249443 C-38.15733405 59.52118641 -38.15401916 55.13998572 -38.14340445 50.75868738 C-38.14117681 49.17675021 -38.1422924 47.5948039 -38.14715603 46.01287263 C-38.18658062 32.12030836 -37.63235089 20.4360451 -27.7375946 9.83966064 C-19.25823674 1.92462865 -11.34422059 -0.01177725 0 0 Z " fill="#121212" transform="translate(197.8860321044922,603.8595581054688)"/>
</svg>
